<svg width="84" height="65" viewBox="0 0 84 65" fill="none" xmlns="http://www.w3.org/2000/svg">
<path d="M65.972 57.696C66.156 56.626 66.134 55.62 65.909 54.674C67.312 54.635 68.719 54.57 70.125 54.474H70.14C72.221 54.298 73.946 53.441 75.315 51.902C76.73 50.317 77.365 48.474 77.221 46.37C77.11 44.71 76.536 43.265 75.501 42.031C76.287 41.923 76.819 41.813 77.097 41.706L77.128 41.691C79.322 40.873 81.001 39.458 82.163 37.446L82.179 37.431C83.457 35.253 83.544 32.894 82.443 30.349V30.366C81.416 27.778 79.19 26.208 75.764 25.656H75.795C75.295 25.56 74.742 25.489 74.138 25.438C74.284 25.209 74.418 24.965 74.54 24.709L74.556 24.678C75.406 22.804 75.503 20.888 74.851 18.93C74.845 18.918 74.84 18.902 74.834 18.884C74.125 16.932 72.875 15.49 71.085 14.561H71.101C69.54 13.674 67.356 13.359 64.547 13.616V13.6C62.507 13.766 54.053 15.619 39.183 19.162C39.225 19.09 39.266 19.017 39.307 18.945V18.961C40.379 17.144 41.2 15.146 41.77 12.964L41.755 12.98C42.434 10.545 42.195 7.94699 41.042 5.18799C39.702 1.91299 37.193 0.506994 33.511 0.972994H33.496C29.95 1.32199 27.658 3.672 26.617 8.02299C25.962 10.797 25.311 12.635 24.664 13.539L24.65 13.555C23.933 14.369 22.76 15.237 21.132 16.158C21.122 16.162 21.111 16.167 21.101 16.173C18.772 17.443 16.959 19.375 15.663 21.968V21.952C15.27 22.717 14.924 23.501 14.624 24.307C13.333 23.47 12.207 23.092 11.247 23.177C8.04299 23.05 5.48 24.946 3.562 28.863L3.577 28.847C2.226 31.515 1.348 34.474 0.942995 37.726V37.742C0.548995 41.025 0.910995 44.32 2.027 47.627L2.042 47.643C3.292 51.541 6.43199 53.572 11.462 53.732C11.729 53.741 11.977 53.705 12.206 53.625C16.471 61.129 25.014 63.272 37.832 60.055C44.29 62.157 50.948 63.536 57.805 64.191H57.82C59.761 64.377 61.528 63.835 63.119 62.564C64.714 61.281 65.664 59.661 65.972 57.696ZM38.609 55.79C38.203 55.657 37.795 55.648 37.385 55.759C24.788 59.057 17.109 56.33 14.346 47.578C14.179 47.015 13.84 46.592 13.323 46.308C12.804 46.026 12.261 45.969 11.697 46.136C11.133 46.302 10.709 46.642 10.426 47.159C10.143 47.678 10.087 48.22 10.255 48.785C10.308 48.977 10.365 49.168 10.426 49.359C8.21999 49.038 6.76899 48.001 6.07199 46.245L6.088 46.261C5.181 43.581 4.881 40.91 5.189 38.249C5.527 35.511 6.261 33.016 7.389 30.768L7.40499 30.751C8.42099 28.675 9.701 27.574 11.248 27.45C11.798 27.556 12.531 27.99 13.448 28.753C13.393 29.067 13.348 29.382 13.308 29.697C13.235 30.282 13.38 30.807 13.742 31.277C14.107 31.742 14.582 32.011 15.167 32.084C15.752 32.157 16.28 32.013 16.748 31.649C17.212 31.285 17.481 30.81 17.554 30.224C17.832 27.958 18.472 25.851 19.475 23.902V23.886C20.362 22.111 21.597 20.783 23.178 19.905L23.209 19.889C25.437 18.632 27.017 17.422 27.95 16.264L27.966 16.248C28.966 15.12 29.901 12.707 30.771 9.01199C31.299 6.79799 32.389 5.53199 34.04 5.21599H34.056C35.531 5.02599 36.548 5.56299 37.108 6.82799C37.854 8.61199 38.03 10.291 37.634 11.864L37.618 11.879C37.156 13.665 36.49 15.302 35.619 16.791V16.807C34.549 18.64 33.893 20.262 33.652 21.672C33.639 21.714 33.629 21.755 33.621 21.796C33.607 21.876 33.596 21.96 33.59 22.044C33.542 22.726 33.563 24.002 33.652 25.873V25.903C33.707 27.373 33.252 29.216 32.289 31.434H32.274C31.294 33.603 29.419 35.365 26.649 36.717C26.121 36.978 25.759 37.384 25.565 37.941C25.37 38.497 25.401 39.039 25.658 39.569C25.917 40.098 26.326 40.461 26.882 40.654C27.435 40.848 27.977 40.818 28.509 40.56C32.351 38.69 34.918 36.217 36.209 33.139H36.194C37.496 30.165 38.074 27.681 37.929 25.686V25.656C37.897 24.968 37.875 24.374 37.866 23.874C53.805 20.062 62.823 18.063 64.918 17.877V17.861C66.696 17.705 68.085 17.864 69.086 18.341H69.103C69.901 18.769 70.464 19.419 70.791 20.294C70.797 20.309 70.802 20.324 70.808 20.339C71.084 21.205 71.037 22.052 70.668 22.88C70.663 22.891 70.657 22.902 70.652 22.912C70.283 23.672 69.705 24.198 68.917 24.493L68.933 24.476C67.652 24.94 66.36 25.364 65.059 25.747C65.02 25.757 64.979 25.768 64.936 25.778C64.733 25.849 64.169 26.019 63.247 26.29C63.2 26.297 63.153 26.308 63.107 26.321C58.636 27.625 52.671 28.839 45.211 29.962C44.625 30.048 44.155 30.326 43.802 30.798C43.452 31.277 43.323 31.809 43.414 32.395C43.499 32.975 43.778 33.44 44.251 33.791C44.726 34.138 45.253 34.268 45.831 34.178C53.501 33.034 59.642 31.794 64.253 30.459C69.098 29.672 72.697 29.475 75.052 29.87H75.084C76.783 30.142 77.925 30.866 78.508 32.039V32.054C79.017 33.229 79.001 34.319 78.461 35.325L78.477 35.308C77.827 36.427 76.892 37.218 75.672 37.679C74.112 38.173 64.361 38.845 46.42 39.694C46.394 39.692 46.368 39.692 46.343 39.694C45.767 39.718 45.281 39.945 44.886 40.376C44.487 40.808 44.295 41.314 44.313 41.895C44.334 42.479 44.555 42.975 44.979 43.382C45.401 43.784 45.902 43.981 46.482 43.97C46.508 43.97 46.534 43.97 46.56 43.97C60.98 43.743 68.572 43.61 69.336 43.568H69.366C70.284 43.503 71.09 43.76 71.783 44.342L71.799 44.357C72.498 44.972 72.88 45.738 72.945 46.652C73.008 47.565 72.734 48.365 72.124 49.053C71.514 49.74 70.744 50.121 69.816 50.199C68.364 50.302 66.913 50.372 65.462 50.416C64.434 50.435 63.374 50.445 62.286 50.446C62.184 50.437 62.081 50.437 61.976 50.446C56.727 50.439 50.701 50.073 43.894 49.346C43.31 49.284 42.789 49.439 42.329 49.811C41.868 50.179 41.604 50.656 41.539 51.236C41.477 51.821 41.632 52.341 42.004 52.8C42.372 53.261 42.848 53.526 43.43 53.591C50.103 54.305 56.048 54.681 61.263 54.722C61.272 54.737 61.283 54.752 61.294 54.769C61.747 55.418 61.902 56.163 61.759 56.999V57.016C61.613 57.903 61.18 58.635 60.457 59.214C59.78 59.758 59.031 60.002 58.211 59.944C51.475 59.295 44.941 57.909 38.609 55.79Z" fill="black"/>
</svg>
