<svg width="75" height="67" viewBox="0 0 75 67" fill="none" xmlns="http://www.w3.org/2000/svg">
<path d="M49.615 64.265C51.618 62.531 52.607 60.449 52.582 58.022C52.582 57.958 52.582 57.894 52.582 57.83C55.117 57.483 57.448 56.546 59.578 55.017L59.598 54.997C62.849 52.593 64.442 49.696 64.376 46.307C64.373 45.496 64.284 44.705 64.106 43.936C64.402 43.744 64.717 43.538 65.049 43.321C65.088 43.286 65.127 43.255 65.165 43.224C67.311 41.723 68.385 39.321 68.383 36.016C68.459 34.173 67.811 32.297 66.438 30.39C67.093 30.012 67.722 29.595 68.326 29.138C68.639 28.918 68.999 28.635 69.405 28.29C69.553 28.162 69.688 28.02 69.81 27.865C69.838 27.827 69.871 27.782 69.907 27.73C73.095 24.813 74.656 21.914 74.589 19.041C74.756 16.066 73.221 13.182 69.984 10.387L69.964 10.369C64.666 5.62502 57.941 4.68702 49.788 7.55602C49.607 7.35902 49.421 7.16002 49.229 6.95802V6.97802C45.083 2.65302 40.522 0.513022 35.547 0.560022C32.034 0.465022 28.038 2.23702 23.561 5.87902L23.541 5.89902C20.888 7.94802 18.666 11.12 16.874 15.418C15.793 14.841 14.708 14.578 13.617 14.628C9.63201 14.471 6.44601 16.827 4.05801 21.701L4.07801 21.681C2.39901 25.026 1.30701 28.707 0.803008 32.723V32.741C0.315008 36.824 0.764008 40.935 2.15201 45.074L2.17201 45.094C3.61601 49.604 7.09201 52.101 12.597 52.59C13.16 53.695 13.893 54.852 14.794 56.059L14.813 56.079C17.915 60.504 23.13 62.104 30.46 60.877C30.997 61.488 31.614 62.105 32.311 62.728V62.748C35.37 65.492 38.549 66.821 41.85 66.737H41.888C45.267 66.671 47.83 65.861 49.577 64.308C49.587 64.289 49.601 64.277 49.615 64.265ZM42.543 43.608C42.581 43.63 42.619 43.656 42.658 43.685C42.916 43.838 43.173 43.994 43.429 44.147C45.349 45.303 47.372 46.119 49.498 46.594C51.048 46.943 52.641 47.116 54.277 47.114C55.941 47.113 57.534 46.888 59.056 46.44C58.946 48.075 58.078 49.495 56.454 50.699L56.434 50.719C54.615 52.018 52.573 52.667 50.306 52.665C47.618 52.664 45.112 51.956 42.79 50.546L42.81 50.564C40.449 49.095 39.235 47.201 39.168 44.879C39.167 43.948 39.462 43.255 40.054 42.799H40.093C40.352 42.633 40.641 42.503 40.96 42.413C41.443 42.824 41.971 43.223 42.543 43.608ZM49.942 32.239C50.049 32.271 50.152 32.296 50.251 32.316C50.533 32.367 50.816 32.418 51.099 32.469L50.964 32.431C53.068 32.932 55.189 33.112 57.323 32.97H57.342C58.62 32.896 59.899 32.711 61.178 32.411C62.344 33.668 62.973 34.869 63.067 36.014C63.065 37.27 62.738 38.226 62.084 38.886L62.025 38.944C62.005 38.956 61.987 38.969 61.967 38.983C61.61 39.213 61.276 39.439 60.965 39.658H60.946C60.593 39.908 60.265 40.134 59.963 40.332C59.932 40.348 59.9 40.367 59.867 40.39C59.716 40.449 59.568 40.526 59.424 40.621C59.32 40.653 59.217 40.69 59.115 40.736C57.617 41.445 56.005 41.799 54.278 41.796C53.038 41.794 51.83 41.659 50.655 41.393C49.083 41.045 47.586 40.448 46.165 39.6C45.909 39.446 45.652 39.291 45.394 39.137C44.71 38.658 44.132 38.144 43.66 37.596V37.616C42.698 36.471 42.217 35.168 42.215 33.703C42.216 32.714 42.55 31.982 43.218 31.507V31.487C44.078 31.009 45.197 30.772 46.571 30.775C47.538 31.354 48.662 31.841 49.942 32.239ZM66.477 14.395L66.496 14.415C68.259 15.933 69.184 17.449 69.271 18.961C69.128 20.546 68.107 22.196 66.207 23.914C66.12 23.998 66.037 24.089 65.957 24.184C65.889 24.267 65.824 24.344 65.765 24.416C65.589 24.558 65.429 24.679 65.284 24.782C65.252 24.809 65.22 24.835 65.187 24.859C64.184 25.63 63.073 26.247 61.853 26.71C61.45 26.827 61.039 26.943 60.62 27.056C59.419 27.389 58.218 27.587 57.016 27.654H56.997C55.386 27.768 53.786 27.639 52.198 27.268C52.153 27.255 52.107 27.243 52.063 27.23C51.831 27.187 51.599 27.143 51.369 27.095C51.139 27.021 50.913 26.945 50.695 26.863C51.581 26.375 52.351 25.701 53.007 24.84C53.018 24.82 53.03 24.801 53.047 24.783C53.901 23.645 54.454 22.276 54.703 20.679C55.232 20.899 56.003 21.233 57.016 21.68C57.694 21.981 58.374 22 59.059 21.739C59.739 21.472 60.227 21.004 60.523 20.331C60.825 19.655 60.844 18.975 60.582 18.288C60.314 17.609 59.846 17.121 59.175 16.825C56.826 15.782 55.406 15.229 54.916 15.167C54.833 15.157 54.749 15.151 54.666 15.147C54.566 15.138 54.47 15.132 54.377 15.127C54.363 15.081 54.351 15.035 54.338 14.993C54.332 14.963 54.325 14.931 54.318 14.897C54.034 13.979 53.629 13.054 53.104 12.121C58.429 10.637 62.886 11.394 66.477 14.395ZM19.072 52.896L19.052 52.876C17.038 50.158 16.345 47.975 16.97 46.324C17.315 45.674 17.38 44.999 17.163 44.301C16.949 43.598 16.519 43.072 15.872 42.722C15.224 42.377 14.549 42.313 13.849 42.53C13.147 42.745 12.62 43.176 12.269 43.82C11.671 44.782 11.324 45.822 11.229 46.942C9.24601 46.353 7.89701 45.16 7.18201 43.357L7.20101 43.377C6.07301 40.021 5.70101 36.688 6.08301 33.377V33.357C6.50601 29.98 7.41901 26.884 8.82001 24.068L8.83901 24.05C10.103 21.467 11.695 20.098 13.618 19.945C14.088 20.008 14.569 20.226 15.063 20.6C14.673 21.952 14.313 23.377 13.984 24.878C13.83 25.593 13.952 26.262 14.35 26.882C14.744 27.506 15.296 27.897 16.007 28.058C16.723 28.213 17.391 28.091 18.011 27.692C18.633 27.297 19.025 26.747 19.186 26.034C20.89 18.251 23.453 12.92 26.875 10.04L26.895 10.02C30.169 7.35402 33.054 5.97202 35.547 5.87702C39.103 5.93102 42.378 7.52402 45.375 10.657C45.901 11.203 46.378 11.75 46.801 12.295C46.814 12.313 46.826 12.333 46.839 12.352C46.893 12.427 46.95 12.498 47.013 12.564C48.07 13.911 48.808 15.229 49.229 16.514L49.209 16.418C49.335 16.863 49.432 17.306 49.498 17.747C49.496 17.782 49.496 17.813 49.498 17.844C49.52 18.085 49.534 18.335 49.537 18.595C49.536 19.831 49.266 20.853 48.727 21.658L48.765 21.62C48.301 22.23 47.646 22.519 46.8 22.487C46.413 22.492 46.04 22.446 45.682 22.352L45.624 22.332H45.604C44.81 22.062 44.065 21.573 43.369 20.869H43.35C41.638 19.174 40.392 17.959 39.611 17.225C39.503 16.972 39.348 16.736 39.149 16.513C38.693 16.007 38.128 15.718 37.453 15.646C36.775 15.571 36.159 15.73 35.603 16.128C35.052 16.531 34.705 17.065 34.562 17.727C34.284 18.677 34.432 19.967 35.005 21.601L35.025 21.64C35.308 22.412 35.468 22.977 35.507 23.335C35.456 24.991 34.777 26.706 33.464 28.481L33.444 28.499C32.207 30.123 30.928 31.069 29.609 31.332C28.886 31.429 28.302 31.77 27.855 32.353C27.404 32.937 27.223 33.592 27.316 34.319C27.413 35.042 27.753 35.626 28.337 36.073C28.921 36.523 29.576 36.704 30.304 36.612C32.648 36.392 34.863 35.063 36.952 32.624C36.913 32.972 36.893 33.331 36.893 33.702C36.893 35.23 37.168 36.662 37.722 38C37.532 38.108 37.346 38.225 37.162 38.347C34.953 39.692 33.849 41.868 33.848 44.879C33.844 45.173 33.85 45.462 33.868 45.746C32.177 45.975 30.738 46.835 29.552 48.329L29.533 48.348C28.274 49.863 27.645 51.776 27.644 54.091C27.635 54.669 27.693 55.247 27.817 55.825C23.877 56.134 20.96 55.157 19.072 52.896ZM41.772 61.414C39.742 61.37 37.77 60.489 35.855 58.773V58.793C35.009 58.021 34.335 57.262 33.832 56.52L33.794 56.461C33.761 56.412 33.729 56.367 33.697 56.326C33.232 55.575 32.988 54.83 32.965 54.091C32.964 53.128 33.201 52.323 33.679 51.683L33.698 51.663C34.022 51.252 34.421 51.033 34.893 51.008C35.013 51.006 35.11 51.006 35.182 51.008C35.225 51.025 35.27 51.044 35.317 51.065C35.468 51.142 35.623 51.206 35.78 51.258C36.787 52.679 38.194 53.951 40 55.074L40.02 55.092C42.245 56.443 44.596 57.323 47.073 57.733C47.134 57.824 47.205 57.913 47.285 58.003L47.266 58.023C47.241 58.868 46.881 59.599 46.186 60.219C45.166 60.974 43.708 61.372 41.812 61.415L41.772 61.414Z" fill="black"/>
</svg>
