<svg width="84" height="57" viewBox="0 0 84 57" fill="none" xmlns="http://www.w3.org/2000/svg">
<path d="M1.991 38.204C3.313 42.332 6.637 44.481 11.966 44.65C12.134 44.656 12.298 44.645 12.456 44.617C12.913 45.31 13.454 45.977 14.081 46.62C16.421 49.041 19.171 50.244 22.333 50.228C22.653 50.235 23.163 50.18 23.858 50.065C24.21 50.008 24.434 49.975 24.532 49.966C24.595 49.966 24.653 49.966 24.712 49.966C25.276 51.018 26.069 52.072 27.091 53.132L27.107 53.148C29.566 55.711 32.24 56.968 35.13 56.921C37.653 56.91 39.862 56.206 41.757 54.805C43.937 53.202 44.987 51.338 44.908 49.211C44.908 49.175 44.908 49.136 44.908 49.096C47.668 49.004 50.183 48.266 52.455 46.882L52.472 46.864C55.509 44.959 56.981 42.635 56.885 39.892C56.903 38.945 56.75 38.033 56.425 37.151C59.123 37.657 61.879 38.093 64.694 38.464C70.51 39.227 74.459 39.445 76.539 39.12C76.55 39.114 76.561 39.108 76.572 39.103C79.27 38.685 81.343 37.181 82.79 34.592L82.773 34.608C84.299 32.058 84.267 29.177 82.674 25.962C81.387 22.799 77.22 20.956 70.173 20.434C70.091 20.427 70.008 20.422 69.927 20.417C74.851 18.898 77.848 16.988 78.917 14.692L78.934 14.675C80.654 11.476 80.888 8.89997 79.64 6.94897C78.623 5.05997 77.098 3.75997 75.063 3.04397H75.095C73.362 2.39797 71.389 2.11397 69.172 2.19097H69.139C67.126 2.20897 63.101 3.25397 57.066 5.32297C52.34 6.94097 48.419 8.51597 45.302 10.049C44.525 8.65397 43.441 7.23397 42.054 5.78397C38.525 2.09897 34.642 0.279972 30.406 0.319972C27.41 0.240972 24.004 1.74597 20.185 4.83197C17.923 6.58797 16.033 9.29397 14.507 12.952C13.587 12.473 12.663 12.254 11.736 12.296C8.349 12.166 5.625 14.172 3.566 18.317C2.166 21.16 1.252 24.289 0.825999 27.702C0.387999 31.191 0.775999 34.691 1.991 38.204ZM35.179 46.914H35.197C36.73 47.717 38.338 48.301 40.019 48.671C40.111 48.859 40.23 49.041 40.38 49.212C40.302 49.927 39.864 50.577 39.067 51.165C37.942 51.994 36.631 52.403 35.129 52.395C33.432 52.348 31.846 51.555 30.371 50.015L30.356 50C28.993 48.587 28.276 47.209 28.206 45.864C28.206 45.058 28.407 44.375 28.813 43.813L28.829 43.797C29.106 43.463 29.444 43.289 29.847 43.273C30.035 43.272 30.16 43.272 30.224 43.273C30.244 43.277 30.259 43.283 30.275 43.29H30.209C30.465 43.416 30.723 43.493 30.98 43.519C31.927 44.803 33.327 45.934 35.179 46.914ZM7.634 20.322C8.726 18.118 10.093 16.953 11.736 16.826C12.136 16.88 12.547 17.066 12.966 17.384C12.634 18.534 12.327 19.749 12.046 21.027C11.915 21.635 12.019 22.204 12.359 22.733C12.695 23.263 13.166 23.597 13.769 23.734C14.378 23.866 14.949 23.762 15.476 23.423C16.005 23.087 16.339 22.616 16.478 22.011C17.931 15.376 20.119 10.821 23.039 8.34597C25.828 6.09397 28.283 4.92897 30.406 4.84997C33.431 4.89597 36.22 6.25197 38.773 8.91897V8.90197C40.392 10.595 41.48 12.231 42.037 13.807C42.043 13.824 42.049 13.84 42.055 13.856C42.225 14.464 42.315 15.071 42.317 15.677C42.317 16.719 42.092 17.571 41.645 18.237C41.252 18.745 40.698 18.986 39.987 18.958C38.915 18.931 37.936 18.482 37.051 17.614C35.61 16.186 34.555 15.158 33.885 14.529C33.795 14.297 33.656 14.077 33.475 13.872C33.086 13.441 32.604 13.196 32.032 13.134C31.454 13.07 30.928 13.207 30.456 13.544C29.987 13.888 29.692 14.342 29.571 14.906C29.331 15.705 29.452 16.81 29.93 18.219C29.944 18.234 29.953 18.251 29.963 18.269C30.205 18.927 30.342 19.408 30.373 19.712C30.332 21.122 29.742 22.582 28.602 24.093C27.553 25.475 26.459 26.283 25.321 26.521C24.71 26.611 24.216 26.906 23.844 27.407C23.463 27.912 23.317 28.476 23.401 29.097C23.491 29.708 23.786 30.201 24.288 30.574C24.794 30.953 25.356 31.101 25.977 31.016C28.207 30.773 30.286 29.372 32.211 26.816C33.551 25.045 34.393 23.305 34.736 21.599C36.332 22.88 38.082 23.509 39.986 23.486C42.242 23.464 44.003 22.622 45.269 20.96L45.287 20.927C46.325 19.581 46.846 17.83 46.846 15.677C46.847 15.252 46.825 14.825 46.781 14.398C49.825 12.856 53.746 11.265 58.544 9.62397C63.937 7.76897 67.513 6.80097 69.273 6.71897H69.305C70.883 6.66697 72.288 6.86397 73.522 7.30997H73.555C74.493 7.64397 75.2 8.24697 75.67 9.11497C75.957 9.95697 75.71 11.099 74.933 12.544L74.95 12.529C73.781 14.286 70.511 15.784 65.139 17.023L65.156 17.007C58.814 18.444 52.837 20.034 47.223 21.781C46.664 21.957 46.238 22.302 45.944 22.814C45.644 23.326 45.557 23.868 45.681 24.438C45.815 25.01 46.126 25.463 46.618 25.801C47.099 26.142 47.63 26.273 48.209 26.194C56.877 24.974 64.091 24.565 69.848 24.964C74.624 25.317 77.544 26.318 78.61 27.966C79.423 29.61 79.501 31.078 78.839 32.38L78.822 32.396C78.126 33.658 77.135 34.407 75.853 34.644L75.885 34.626C74.029 34.87 70.495 34.651 65.287 33.971C59.909 33.264 54.747 32.314 49.801 31.117C49.341 30.966 48.86 30.851 48.356 30.772C48.315 30.765 48.278 30.76 48.243 30.755C48.041 30.734 47.827 30.711 47.602 30.69C46.982 30.625 46.428 30.789 45.945 31.182C45.462 31.578 45.187 32.088 45.126 32.708C45.061 33.327 45.225 33.88 45.617 34.363C46.015 34.848 46.524 35.121 47.143 35.184C47.314 35.202 47.478 35.219 47.635 35.234C47.673 35.241 47.711 35.246 47.75 35.251C47.932 35.286 48.112 35.329 48.291 35.382C48.341 35.404 48.395 35.426 48.455 35.447C49.265 35.728 50.035 36.194 50.768 36.842L50.785 36.859C51.79 37.783 52.314 38.795 52.36 39.894C52.265 41.087 51.506 42.131 50.079 43.028L50.097 43.011C48.372 44.066 46.448 44.59 44.322 44.586C41.791 44.591 39.449 44.033 37.301 42.912H37.317C35.251 41.819 34.163 40.44 34.053 38.778C34.035 38.152 34.289 37.698 34.807 37.415L34.791 37.433C35.551 37.061 36.541 36.875 37.76 36.875C38.182 36.926 39.069 37.21 40.418 37.728C40.434 37.734 40.449 37.741 40.467 37.744C41.778 38.283 42.571 38.638 42.846 38.81C43.321 39.223 43.867 39.409 44.487 39.368C45.107 39.321 45.621 39.058 46.029 38.582C46.443 38.108 46.628 37.561 46.588 36.941C46.538 36.322 46.275 35.808 45.8 35.399C45.424 35.005 44.198 34.382 42.124 33.529C42.106 33.524 42.091 33.519 42.075 33.512C39.907 32.681 38.47 32.294 37.761 32.347C35.656 32.345 33.954 32.706 32.659 33.43L32.641 33.447C30.586 34.559 29.549 36.326 29.524 38.745C27.85 38.818 26.444 39.558 25.309 40.96L25.291 40.978C24.285 42.216 23.75 43.731 23.684 45.521C23.522 45.542 23.336 45.57 23.125 45.603H23.109C22.755 45.663 22.498 45.696 22.338 45.702C20.426 45.687 18.758 44.943 17.334 43.472C15.959 42.064 15.221 40.467 15.121 38.682C15.09 38.056 14.844 37.533 14.381 37.107C13.92 36.683 13.377 36.487 12.758 36.516C12.133 36.545 11.608 36.791 11.184 37.253C10.76 37.715 10.563 38.256 10.592 38.877C10.608 39.256 10.641 39.628 10.69 39.994C8.458 39.63 6.981 38.541 6.262 36.729C5.287 33.896 4.977 31.076 5.324 28.264C5.683 25.375 6.454 22.728 7.634 20.322Z" fill="black"/>
</svg>
